<svg xmlns="http://www.w3.org/2000/svg" viewBox="0 0 36 30" width="36" height="30" shape-rendering="geometricPrecision">
  <!-- ENEMIGO 02 "CARA DE PALO" - fotograma A -->
  <g stroke="#3d1a63" stroke-width="2" stroke-linejoin="round" stroke-linecap="round">
    <path d="M4,18 Q4,4 18,4 Q32,4 32,18 Q32,22 28,22 L8,22 Q4,22 4,18 Z" fill="#b980ff"/>
    <path d="M8,22 L5,29 M14,22 L12,29 M22,22 L24,29 M28,22 L31,29" stroke="#9a5ce8" stroke-width="3"/>
    <path d="M11,4 L9,0 M25,4 L27,0" stroke="#9a5ce8"/>
  </g>
  <g fill="#2a0f47">
    <rect x="7" y="9" width="10" height="3.2" rx="1.6" transform="rotate(16 12 10)"/>
    <rect x="19" y="9" width="10" height="3.2" rx="1.6" transform="rotate(-16 24 10)"/>
  </g>
  <ellipse cx="12" cy="16" rx="4" ry="3.6" fill="#ffe36b" stroke="#3d1a63" stroke-width="1.5"/>
  <ellipse cx="24" cy="16" rx="4" ry="3.6" fill="#ffe36b" stroke="#3d1a63" stroke-width="1.5"/>
  <circle cx="12" cy="16" r="1.8" fill="#2a0f47"/>
  <circle cx="24" cy="16" r="1.8" fill="#2a0f47"/>
  <path d="M13,20 L23,20" stroke="#2a0f47" stroke-width="2" stroke-linecap="round"/>
</svg>
